<?xml version="1.0" encoding="UTF-8" standalone="no"?>
<!DOCTYPE svg PUBLIC "-//W3C//DTD SVG 1.1//EN"
 "http://www.w3.org/Graphics/SVG/1.1/DTD/svg11.dtd">
<!-- Generated by graphviz version 14.1.2 (20260124.0452)
 -->
<!-- Title: EIP Pages: 1 -->
<svg width="1373pt" height="378pt"
 viewBox="0.00 0.00 1373.00 378.00" xmlns="http://www.w3.org/2000/svg" xmlns:xlink="http://www.w3.org/1999/xlink">
<g id="graph0" class="graph" transform="scale(1 1) rotate(0) translate(4 373.74)">
<title>EIP</title>
<polygon fill="white" stroke="none" points="-4,4 -4,-373.74 1369.06,-373.74 1369.06,4 -4,4"/>
<!-- n1 -->
<g id="node1" class="node">
<title>n1</title>
<polygon fill="none" stroke="black" points="126.25,-222.87 0,-222.87 0,-184.87 126.25,-184.87 126.25,-222.87"/>
<text xml:space="preserve" text-anchor="middle" x="63.12" y="-205.57" font-family="Helvetica,sans-Serif" font-size="14.00">route</text>
<text xml:space="preserve" text-anchor="middle" x="63.12" y="-190.57" font-family="Helvetica,sans-Serif" font-size="14.00">id=news_route_v1</text>
</g>
<!-- n2 -->
<g id="node2" class="node">
<title>n2</title>
<ellipse fill="none" stroke="black" cx="521" cy="-342.87" rx="86.62" ry="26.87"/>
<text xml:space="preserve" text-anchor="middle" x="521" y="-344.57" font-family="Helvetica,sans-Serif" font-size="14.00">from</text>
<text xml:space="preserve" text-anchor="middle" x="521" y="-329.57" font-family="Helvetica,sans-Serif" font-size="14.00">id=source_kaggle</text>
</g>
<!-- n1&#45;&gt;n2 -->
<g id="edge1" class="edge">
<title>n1&#45;&gt;n2</title>
<path fill="none" stroke="black" d="M79.41,-223.27C94.11,-240.49 117.93,-264.88 144.25,-277.87 232.1,-321.23 343.93,-336.18 422.67,-341.08"/>
<polygon fill="black" stroke="black" points="422.34,-344.56 432.53,-341.64 422.74,-337.58 422.34,-344.56"/>
<text xml:space="preserve" text-anchor="middle" x="256.38" y="-337.3" font-family="Helvetica,sans-Serif" font-size="14.00">uri=file:data/inbox/news.csv</text>
</g>
<!-- n3 -->
<g id="node3" class="node">
<title>n3</title>
<polygon fill="none" stroke="black" points="569.12,-297.87 472.88,-297.87 472.88,-259.87 569.12,-259.87 569.12,-297.87"/>
<text xml:space="preserve" text-anchor="middle" x="521" y="-280.57" font-family="Helvetica,sans-Serif" font-size="14.00">transform</text>
<text xml:space="preserve" text-anchor="middle" x="521" y="-265.57" font-family="Helvetica,sans-Serif" font-size="14.00">id=clean_text</text>
</g>
<!-- n1&#45;&gt;n3 -->
<g id="edge2" class="edge">
<title>n1&#45;&gt;n3</title>
<path fill="none" stroke="black" d="M126.56,-219.22C132.53,-220.52 138.49,-221.76 144.25,-222.87 255.67,-244.34 387.04,-262.25 461.22,-271.68"/>
<polygon fill="black" stroke="black" points="460.76,-275.15 471.12,-272.93 461.64,-268.21 460.76,-275.15"/>
<text xml:space="preserve" text-anchor="middle" x="256.38" y="-260.78" font-family="Helvetica,sans-Serif" font-size="14.00">ref=normalize_text_fn</text>
</g>
<!-- n4 -->
<g id="node4" class="node">
<title>n4</title>
<polygon fill="none" stroke="black" points="521,-241.87 386.5,-203.87 521,-165.87 655.5,-203.87 521,-241.87"/>
<text xml:space="preserve" text-anchor="middle" x="521" y="-205.57" font-family="Helvetica,sans-Serif" font-size="14.00">filter</text>
<text xml:space="preserve" text-anchor="middle" x="521" y="-190.57" font-family="Helvetica,sans-Serif" font-size="14.00">id=min_length_filter</text>
</g>
<!-- n1&#45;&gt;n4 -->
<g id="edge3" class="edge">
<title>n1&#45;&gt;n4</title>
<path fill="none" stroke="black" d="M126.56,-203.87C189.85,-203.87 290.09,-203.87 373.55,-203.87"/>
<polygon fill="black" stroke="black" points="373.43,-207.37 383.43,-203.87 373.43,-200.37 373.43,-207.37"/>
<text xml:space="preserve" text-anchor="middle" x="256.38" y="-205.57" font-family="Helvetica,sans-Serif" font-size="14.00">condition=len(Text) &gt;= 50</text>
</g>
<!-- n6 -->
<g id="node6" class="node">
<title>n6</title>
<polygon fill="none" stroke="black" points="521,-147.87 418,-109.87 521,-71.87 624,-109.87 521,-147.87"/>
<text xml:space="preserve" text-anchor="middle" x="521" y="-111.57" font-family="Helvetica,sans-Serif" font-size="14.00">choice</text>
<text xml:space="preserve" text-anchor="middle" x="521" y="-96.57" font-family="Helvetica,sans-Serif" font-size="14.00">id=lang_router</text>
</g>
<!-- n1&#45;&gt;n6 -->
<g id="edge5" class="edge">
<title>n1&#45;&gt;n6</title>
<path fill="none" stroke="black" d="M126.56,-191C208.87,-174.02 353.67,-144.17 442.78,-125.79"/>
<polygon fill="black" stroke="black" points="443.33,-129.25 452.41,-123.81 441.91,-122.4 443.33,-129.25"/>
</g>
<!-- n12 -->
<g id="node12" class="node">
<title>n12</title>
<ellipse fill="none" stroke="black" cx="521" cy="-26.87" rx="75.48" ry="26.87"/>
<text xml:space="preserve" text-anchor="middle" x="521" y="-28.57" font-family="Helvetica,sans-Serif" font-size="14.00">to</text>
<text xml:space="preserve" text-anchor="middle" x="521" y="-13.57" font-family="Helvetica,sans-Serif" font-size="14.00">id=sink_scored</text>
</g>
<!-- n1&#45;&gt;n12 -->
<g id="edge11" class="edge">
<title>n1&#45;&gt;n12</title>
<path fill="none" stroke="black" d="M78.5,-184.44C93.08,-166.13 117.28,-139.27 144.25,-123.87 236.46,-71.24 357.53,-46.65 436.99,-35.52"/>
<polygon fill="black" stroke="black" points="436.98,-39.05 446.42,-34.24 436.04,-32.12 436.98,-39.05"/>
<text xml:space="preserve" text-anchor="middle" x="256.38" y="-125.57" font-family="Helvetica,sans-Serif" font-size="14.00">uri=file:data/outbox/preds_scored.csv</text>
</g>
<!-- n5 -->
<g id="node5" class="node">
<title>n5</title>
<polygon fill="none" stroke="black" points="946.75,-222.87 852.75,-222.87 852.75,-184.87 946.75,-184.87 946.75,-222.87"/>
<text xml:space="preserve" text-anchor="middle" x="899.75" y="-205.57" font-family="Helvetica,sans-Serif" font-size="14.00">transform</text>
<text xml:space="preserve" text-anchor="middle" x="899.75" y="-190.57" font-family="Helvetica,sans-Serif" font-size="14.00">id=strip_html</text>
</g>
<!-- n4&#45;&gt;n5 -->
<g id="edge4" class="edge">
<title>n4&#45;&gt;n5</title>
<path fill="none" stroke="black" d="M657.22,-203.87C720.52,-203.87 792.55,-203.87 841.35,-203.87"/>
<polygon fill="black" stroke="black" points="841.11,-207.37 851.11,-203.87 841.11,-200.37 841.11,-207.37"/>
<text xml:space="preserve" text-anchor="middle" x="745.5" y="-205.57" font-family="Helvetica,sans-Serif" font-size="14.00">ref=strip_html_fn</text>
</g>
<!-- n7 -->
<g id="node7" class="node">
<title>n7</title>
<polygon fill="none" stroke="black" points="949,-159.87 850.5,-159.87 850.5,-121.87 949,-121.87 949,-159.87"/>
<text xml:space="preserve" text-anchor="middle" x="899.75" y="-142.57" font-family="Helvetica,sans-Serif" font-size="14.00">when</text>
<text xml:space="preserve" text-anchor="middle" x="899.75" y="-127.57" font-family="Helvetica,sans-Serif" font-size="14.00">id=en_branch</text>
</g>
<!-- n6&#45;&gt;n7 -->
<g id="edge6" class="edge">
<title>n6&#45;&gt;n7</title>
<path fill="none" stroke="black" d="M606.55,-116.83C677.22,-122.64 776.23,-130.79 838.92,-135.95"/>
<polygon fill="black" stroke="black" points="838.43,-139.42 848.68,-136.75 839,-132.44 838.43,-139.42"/>
<text xml:space="preserve" text-anchor="middle" x="745.5" y="-135.87" font-family="Helvetica,sans-Serif" font-size="14.00">expression=lang == &#39;en&#39;</text>
</g>
<!-- n10 -->
<g id="node10" class="node">
<title>n10</title>
<polygon fill="none" stroke="black" points="964,-99.87 835.5,-99.87 835.5,-61.87 964,-61.87 964,-99.87"/>
<text xml:space="preserve" text-anchor="middle" x="899.75" y="-82.57" font-family="Helvetica,sans-Serif" font-size="14.00">otherwise</text>
<text xml:space="preserve" text-anchor="middle" x="899.75" y="-67.57" font-family="Helvetica,sans-Serif" font-size="14.00">id=non_en_branch</text>
</g>
<!-- n6&#45;&gt;n10 -->
<g id="edge9" class="edge">
<title>n6&#45;&gt;n10</title>
<path fill="none" stroke="black" d="M602.15,-101.38C625.17,-99.09 650.32,-96.74 673.5,-94.87 723.51,-90.84 779.85,-87.34 823.68,-84.85"/>
<polygon fill="black" stroke="black" points="823.81,-88.34 833.6,-84.29 823.42,-81.36 823.81,-88.34"/>
</g>
<!-- n8 -->
<g id="node8" class="node">
<title>n8</title>
<polygon fill="none" stroke="black" points="1339.03,-223.87 1221.03,-223.87 1221.03,-185.87 1339.03,-185.87 1339.03,-223.87"/>
<text xml:space="preserve" text-anchor="middle" x="1280.03" y="-206.57" font-family="Helvetica,sans-Serif" font-size="14.00">transform</text>
<text xml:space="preserve" text-anchor="middle" x="1280.03" y="-191.57" font-family="Helvetica,sans-Serif" font-size="14.00">id=tfidf_vectorize</text>
</g>
<!-- n7&#45;&gt;n8 -->
<g id="edge7" class="edge">
<title>n7&#45;&gt;n8</title>
<path fill="none" stroke="black" d="M949.16,-152.86C959.94,-155.34 971.33,-157.82 982,-159.87 1059.47,-174.77 1149.08,-187.77 1209.45,-195.92"/>
<polygon fill="black" stroke="black" points="1208.87,-199.37 1219.24,-197.23 1209.8,-192.43 1208.87,-199.37"/>
<text xml:space="preserve" text-anchor="middle" x="1079.5" y="-192.54" font-family="Helvetica,sans-Serif" font-size="14.00">ref=tfidf_vectorizer</text>
</g>
<!-- n9 -->
<g id="node9" class="node">
<title>n9</title>
<ellipse fill="none" stroke="black" cx="1280.03" cy="-140.87" rx="85.03" ry="26.87"/>
<text xml:space="preserve" text-anchor="middle" x="1280.03" y="-142.57" font-family="Helvetica,sans-Serif" font-size="14.00">to</text>
<text xml:space="preserve" text-anchor="middle" x="1280.03" y="-127.57" font-family="Helvetica,sans-Serif" font-size="14.00">id=model_predict</text>
</g>
<!-- n7&#45;&gt;n9 -->
<g id="edge8" class="edge">
<title>n7&#45;&gt;n9</title>
<path fill="none" stroke="black" d="M949.43,-140.87C1008.36,-140.87 1108.98,-140.87 1183.58,-140.87"/>
<polygon fill="black" stroke="black" points="1183.34,-144.37 1193.34,-140.87 1183.34,-137.37 1183.34,-144.37"/>
<text xml:space="preserve" text-anchor="middle" x="1079.5" y="-142.57" font-family="Helvetica,sans-Serif" font-size="14.00">uri=model:best_model.joblib</text>
</g>
<!-- n11 -->
<g id="node11" class="node">
<title>n11</title>
<ellipse fill="none" stroke="black" cx="1280.03" cy="-68.87" rx="85.03" ry="26.87"/>
<text xml:space="preserve" text-anchor="middle" x="1280.03" y="-70.57" font-family="Helvetica,sans-Serif" font-size="14.00">to</text>
<text xml:space="preserve" text-anchor="middle" x="1280.03" y="-55.57" font-family="Helvetica,sans-Serif" font-size="14.00">id=reject_non_en</text>
</g>
<!-- n10&#45;&gt;n11 -->
<g id="edge10" class="edge">
<title>n10&#45;&gt;n11</title>
<path fill="none" stroke="black" d="M964.49,-78.85C1024.53,-76.94 1115.24,-74.07 1183.85,-71.89"/>
<polygon fill="black" stroke="black" points="1183.7,-75.4 1193.58,-71.58 1183.47,-68.4 1183.7,-75.4"/>
<text xml:space="preserve" text-anchor="middle" x="1079.5" y="-79.98" font-family="Helvetica,sans-Serif" font-size="14.00">uri=file:data/rejected/non_en.csv</text>
</g>
</g>
</svg>
